<svg height="512pt" viewBox="-1 0 512 512.001" width="512pt" xmlns="http://www.w3.org/2000/svg"><path d="m435.402344 75.6875c-48.792969-48.789062-113.59375-75.6875-180.3125-75.6875h-15v90.980469h15c44.125 0 85.558594 17.234375 116.671875 48.347656 31.757812 31.757813 49.246093 73.371094 49.246093 117.171875 0 38.882812-13.78125 76.042969-39.09375 106.113281l-29.972656-29.972656-31.121094 155.613281 155.613282-31.121094-30.722656-30.722656c42.269531-47.277344 65.378906-107.054687 65.378906-169.910156 0-67.789062-26.878906-132.003906-75.6875-180.8125zm-19.820313 363.019531-56.519531 11.304688 11.304688-56.519531 12 12 10.609374-10.605469c37.421876-37.425781 58.03125-86.570313 58.03125-138.386719 0-51.820312-20.609374-100.964844-58.03125-138.386719-33.230468-33.230469-76.410156-52.972656-122.886718-56.472656v-31.132813c53.90625 3.644532 104.601562 26.894532 144.097656 66.390626 89.496094 89.496093 89.496094 229.707031 0 319.199218l-10.605469 10.605469zm0 0"/><path d="m74.777344 437.3125c48.160156 48.164062 112.199218 74.6875 180.3125 74.6875h15v-89.949219h-15c-44.125 0-85.5625-17.265625-116.675782-48.378906-61.035156-61.035156-64.414062-158.226563-10.128906-223.261719l29.949219 29.949219 31.121094-155.613281-155.613281 31.121094 30.734374 30.734374c-89.273437 100.292969-85.839843 254.570313 10.300782 350.710938zm19.816406-363.019531 56.523438-11.304688-11.304688 56.519531-12.003906-12-10.605469 10.605469c-76.117187 76.117188-76.105469 200.664063 0 276.773438 33.230469 33.226562 76.410156 52.96875 122.886719 56.46875v30.15625c-54.457032-3.5625-105.15625-26.472657-144.097656-65.414063-88.003907-88.003906-88.003907-231.195312 0-319.199218l10.605468-10.605469zm0 0"/><path d="m255.089844 301c-8.273438 0-15-6.726562-15-15h-30c0 19.554688 12.539062 36.230469 30 42.421875v33.578125h30v-33.578125c17.457031-6.191406 30-22.867187 30-42.421875 0-24.8125-20.1875-45-45-45-8.273438 0-15-6.730469-15-15s6.726562-15 15-15c8.269531 0 15 6.730469 15 15h30c0-19.554688-12.542969-36.226562-30-42.417969v-32.582031h-30v32.582031c-17.460938 6.191407-30 22.863281-30 42.417969 0 24.8125 20.1875 45 45 45 8.269531 0 15 6.730469 15 15 0 8.273438-6.730469 15-15 15zm0 0"/></svg>